<svg width="905" height="915" viewBox="0 0 905 915" fill="none" xmlns="http://www.w3.org/2000/svg">
<rect x="202.443" y="68.0014" width="247.95" height="316.67" fill="#1BB8D1"/>
<rect x="450.394" y="71.7165" width="247.95" height="318.527" fill="#FCC018"/>
<path d="M698.648 367.957H207.364L207.364 518.212C299.089 641.339 392.42 697.938 451.187 723.423C617.167 645.564 674.148 545.943 698.648 488.033V367.957Z" fill="#E71A64"/>
<path d="M473.61 531.399H449.071L424.392 615.906H449.071L473.61 531.399Z" fill="#F3A4C0"/>
<path d="M357.526 580.096L357.526 565.397L416.031 540.685L416.031 560.574L387.291 572.746L416.031 584.827L416.031 604.762L357.526 580.096Z" fill="#F3A4C0"/>
<path d="M543.259 580.096L543.259 565.397L484.754 540.685L484.754 560.574L513.494 572.746L484.754 584.827L484.754 604.762L543.259 580.096Z" fill="#F3A4C0"/>
<path d="M690.91 299.567C679.091 299.995 667.329 300.007 655.57 300.163C652.34 300.206 652.436 298.235 652.439 296.041C652.459 283.978 652.364 271.914 652.509 259.852C652.545 256.917 651.843 254.707 649.199 253.282C637.541 247.003 625.89 240.712 614.21 234.472C612.153 233.373 609.976 232.495 606.995 231.119C609.971 229.565 612.224 228.388 614.594 227.149C612.518 223.616 610.448 220.257 608.547 216.806C605.148 210.636 606.607 210.494 607.474 206.83C609.915 196.518 610.208 186.015 608.77 175.498C608.097 170.577 606.046 171.808 614.645 165.241C627.372 155.521 649.09 159.712 657.618 173.322C667.557 189.185 664.915 211.439 651.522 224.722C650.649 225.587 649.816 226.492 648.978 227.364C662.855 234.213 676.566 240.979 690.565 247.824C690.892 265.003 690.931 282.104 690.91 299.567Z" fill="#FEE79D"/>
<path d="M209.902 204.394C222.963 192.961 235.938 181.874 248.836 170.7C264.963 156.729 281.057 142.721 297.097 128.653C301.349 124.924 306.612 126.23 311.336 125.826C332.34 124.026 353.396 122.838 374.429 121.36C393.12 120.047 411.806 118.653 430.492 117.269C433.308 117.06 436.113 116.706 440.177 116.292C431.19 124.012 423.221 130.898 415.207 137.732C400.55 150.234 385.857 162.696 371.196 175.194C359.15 185.463 347.198 195.843 335.016 205.948C333.409 207.281 330.717 207.63 328.471 207.84C317.635 208.856 306.779 209.652 295.933 210.559C289.404 211.105 282.879 211.711 275.361 212.378C288.956 196.342 301.895 181.08 314.849 165.801C309.12 162.323 307.796 162.642 303.828 167.453C287.643 187.078 271.449 206.698 255.083 226.173C252.654 229.064 252.806 231.146 255.198 233.593C260.212 238.723 263.066 244.742 263.153 252.017C263.17 253.437 263.841 254.918 264.474 256.247C266.065 259.583 267.808 262.848 269.812 266.773C266.18 265.428 263.383 265.259 262.086 269.089C261.931 269.549 260.801 270.172 260.479 270.012C256.33 267.943 254.397 270.705 252.439 274.162C251.78 272.482 251.242 271.392 250.92 270.242C249.444 264.971 247.662 260.029 244.005 255.593C240.326 251.129 238.613 245.705 239.495 239.455C239.832 237.06 237.811 234.11 236.331 231.743C234.484 228.79 234.618 226.682 237.223 224.215C239.985 221.6 242.26 218.479 245.564 214.626C233.21 215.559 221.943 216.409 210.295 217.314C209.87 213.147 209.826 208.924 209.902 204.394Z" fill="#9FD7E4"/>
<path d="M408.102 242.249C395.581 242.522 382.537 242.221 370.169 242.249C355.154 242.284 340.559 242.202 325.544 242.249C315.42 242.281 312.498 247.792 312.438 257.866C312.387 266.576 311.215 274.331 311.146 283.449C304.618 283.151 296.024 283.245 289.595 282.265C288.136 282.043 286.153 280.595 285.685 279.267C279.253 261.024 273.044 242.703 266.521 223.643C272.195 223.083 277.484 222.512 282.783 222.047C298.405 220.676 314.011 218.747 329.662 218.269C336.874 218.049 341.086 214.352 345.734 210.293C359.738 198.066 373.758 185.859 387.783 173.657C388.077 173.401 388.505 173.298 389.257 172.94C392.344 178.666 395.438 184.332 398.463 190.034C404.174 200.802 409.722 211.658 415.604 222.332C417.471 225.72 417.525 228.434 415.071 231.408C412.695 234.289 410.509 239.064 408.102 242.249Z" fill="#9FD7E4"/>
<path d="M591.229 315.012C590.756 295.707 590.657 276.396 590.617 257.085C590.605 251.482 588.845 246.488 584.008 243.582C580.972 241.758 576.977 242.189 573.438 242.123C556.055 241.801 538.759 242.203 520.97 242.123C529.405 237.732 538.241 231.513 547.34 227.059C545.11 224.468 542.872 222.088 540.882 219.519C528.493 203.534 527.093 178.161 537.926 162.301C545.912 150.608 557.281 144.771 571.45 146.228C586.096 147.734 596.408 155.878 601.716 169.573C609.824 190.492 604.219 212.646 587.022 227.883C591.296 229.808 595.458 231.536 599.49 233.526C612.308 239.85 625.079 246.27 637.866 252.657C643.643 255.542 646.778 259.363 646.288 266.618C645.499 278.307 646.09 290.088 646.071 301.83C646.058 310.473 641.517 314.952 632.573 314.991C618.924 315.05 605.275 315.007 591.229 315.012Z" fill="#FEE79D"/>
<path d="M543.138 144.031C543.012 144.989 542.898 145.628 542.667 146.938C538.488 142.417 536.683 137.854 538.165 131.812C536.314 131.812 534.821 131.812 533.328 131.812C517.989 131.812 502.65 131.828 487.311 131.806C476.695 131.791 470.663 127.12 469.354 116.698C468.639 111.006 468.985 105.033 469.838 99.3333C470.805 92.8748 477.645 87.6025 484.331 87.5807C513.195 87.4868 542.061 87.4717 570.925 87.5787C579.032 87.6087 585.722 94.4883 585.912 102.552C586.02 107.137 585.974 111.726 585.925 116.312C585.835 124.749 579.463 131.41 570.996 131.725C565.704 131.923 560.4 131.802 555.102 131.81C548.45 131.82 545.84 133.751 544.023 140.079C543.68 141.275 543.439 142.5 543.138 144.031Z" fill="#FEE79D"/>
<path d="M509.083 241.561C492.951 241.774 476.936 241.574 460.609 241.561C468.764 237.204 477.501 232.075 486.517 227.552C485.569 226.487 484.716 225.489 483.822 224.531C470.926 210.73 469.023 187.139 479.598 172.083C488.636 159.213 509.755 155.845 521.574 165.502C528.542 171.698 527.262 172.703 526.791 178.615C526.135 186.852 526.574 195.54 528.542 203.533C530.733 212.435 532.537 215.02 522.575 225.036C521.841 226.006 520.63 226.608 518.921 227.94C521.829 229.338 523.83 230.299 526.438 231.552C520.413 234.646 514.8 238.572 509.083 241.561Z" fill="#FEE79D"/>
<path d="M314.424 427.551V382.489H306.89L294.396 385.153V392.641L306.89 390.16V427.551H296.004V434.303H326.045V427.551H314.424Z" fill="#F3A4C0"/>
<path d="M314.424 595.029V549.967H306.89L294.396 552.631V560.118L306.89 557.638V595.029H296.004V601.781H326.045V595.029H314.424Z" fill="#F3A4C0"/>
<path d="M372.667 511.06V465.998H365.134L352.64 468.662V476.15L365.134 473.669V511.06H354.247V517.812H384.289V511.06H372.667Z" fill="#F3A4C0"/>
<path d="M256.27 511.06V465.998H248.737L236.243 468.662V476.15L248.737 473.669V511.06H237.851V517.812H267.892V511.06H256.27Z" fill="#F3A4C0"/>
<path d="M489.16 678.171V633.109H481.626L469.132 635.773V643.261L481.626 640.78V678.171H470.74V684.923H500.781V678.171H489.16Z" fill="#F3A4C0"/>
<path d="M372.761 678.171V633.109H365.227L352.733 635.773V643.261L365.227 640.78V678.171H354.341V684.923H384.382V678.171H372.761Z" fill="#F3A4C0"/>
<path d="M606.015 511.06V465.998H598.481L585.987 468.662V476.15L598.481 473.669V511.06H587.595V517.812H617.636V511.06H606.015Z" fill="#F3A4C0"/>
<path d="M664.077 427.826V382.764H656.544L644.049 385.429V392.916L656.544 390.436V427.826H645.657V434.579H675.698V427.826H664.077Z" fill="#F3A4C0"/>
<path d="M664.077 594.845V549.783H656.544L644.049 552.447V559.935L656.544 557.454V594.845H645.657V601.597H658.243L664.077 594.845Z" fill="#F3A4C0"/>
<path d="M327.467 492.454C327.467 469.956 316.902 465.355 309.783 465.355C302.663 465.355 292.098 469.91 292.098 492.454C292.098 514.999 303.306 519.007 309.783 519.007C316.259 519.007 327.467 514.953 327.467 492.454Z" fill="#F3A4C0"/>
<path d="M299.585 492.181C299.585 475.056 305.603 471.868 309.921 471.868C314.239 471.868 320.363 475.922 320.363 492.181C320.363 508.44 314.836 512.676 310.288 512.676C305.741 512.676 299.585 509.305 299.585 492.181Z" fill="#E71A64" stroke="#E71A64"/>
<path d="M269.682 575.964C269.682 553.465 259.117 548.865 251.997 548.865C244.877 548.865 234.312 553.42 234.312 575.964C234.312 598.508 245.52 602.517 251.997 602.517C258.474 602.517 269.682 598.462 269.682 575.964Z" fill="#F3A4C0"/>
<path d="M241.802 575.691C241.802 558.566 247.82 555.378 252.138 555.378C256.455 555.378 262.58 559.432 262.58 575.691C262.58 591.95 257.053 596.186 252.505 596.186C247.957 596.186 241.802 592.815 241.802 575.691Z" fill="#E71A64" stroke="#E71A64"/>
<path d="M269.408 409.037C269.408 386.539 258.843 381.938 251.723 381.938C244.603 381.938 234.038 386.493 234.038 409.037C234.038 431.581 245.246 435.59 251.723 435.59C258.2 435.59 269.408 431.536 269.408 409.037Z" fill="#F3A4C0"/>
<path d="M241.522 408.764C241.522 391.64 247.54 388.451 251.858 388.451C256.176 388.451 262.3 392.505 262.3 408.764C262.3 425.023 256.773 429.259 252.225 429.259C247.678 429.259 241.522 425.888 241.522 408.764Z" fill="#E71A64" stroke="#E71A64"/>
<path d="M618.877 408.945C618.877 386.447 608.312 381.846 601.192 381.846C594.072 381.846 583.507 386.401 583.507 408.945C583.507 431.489 594.715 435.498 601.192 435.498C607.669 435.498 618.877 431.444 618.877 408.945Z" fill="#F3A4C0"/>
<path d="M590.997 408.673C590.997 391.549 597.014 388.36 601.332 388.36C605.65 388.36 611.775 392.414 611.775 408.673C611.775 424.932 606.247 429.168 601.7 429.168C597.152 429.168 590.997 425.797 590.997 408.673Z" fill="#E71A64" stroke="#E71A64"/>
<path d="M560.45 492.547C560.45 470.048 549.885 465.448 542.765 465.448C535.645 465.448 525.08 470.003 525.08 492.547C525.08 515.091 536.289 519.099 542.765 519.099C549.242 519.099 560.45 515.045 560.45 492.547Z" fill="#F3A4C0"/>
<path d="M532.568 492.274C532.568 475.149 538.586 471.961 542.904 471.961C547.221 471.961 553.346 476.015 553.346 492.274C553.346 508.533 547.819 512.769 543.271 512.769C538.723 512.769 532.568 509.398 532.568 492.274Z" fill="#E71A64" stroke="#E71A64"/>
<path d="M677.03 492.547C677.03 470.048 666.465 465.448 659.345 465.448C652.225 465.448 641.66 470.003 641.66 492.547C641.66 515.091 652.868 519.099 659.345 519.099C665.822 519.099 677.03 515.045 677.03 492.547Z" fill="#F3A4C0"/>
<path d="M649.149 492.274C649.149 475.15 655.167 471.961 659.484 471.961C663.802 471.961 669.927 476.015 669.927 492.274C669.927 508.533 664.399 512.769 659.852 512.769C655.304 512.769 649.149 509.398 649.149 492.274Z" fill="#E71A64" stroke="#E71A64"/>
<path d="M618.877 576.147C618.877 553.649 608.312 549.048 601.192 549.048C594.072 549.048 583.507 553.603 583.507 576.147C583.507 598.691 594.715 602.7 601.192 602.7C607.669 602.7 618.877 598.646 618.877 576.147Z" fill="#F3A4C0"/>
<path d="M590.997 575.873C590.997 558.749 597.014 555.56 601.332 555.56C605.65 555.56 611.775 559.614 611.775 575.873C611.775 592.132 606.247 596.368 601.7 596.368C597.152 596.368 590.997 592.998 590.997 575.873Z" fill="#E71A64" stroke="#E71A64"/>
<path d="M444.049 659.748C444.049 637.25 433.484 632.649 426.364 632.649C419.245 632.649 408.68 637.204 408.68 659.748C408.68 682.293 419.888 686.301 426.364 686.301C432.841 686.301 444.049 682.247 444.049 659.748Z" fill="#F3A4C0"/>
<path d="M416.169 659.475C416.169 642.35 422.186 639.162 426.504 639.162C430.822 639.162 436.946 643.216 436.946 659.475C436.946 675.734 431.419 679.97 426.871 679.97C422.324 679.97 416.169 676.599 416.169 659.475Z" fill="#E71A64" stroke="#E71A64"/>
<path d="M560.634 659.84C560.634 637.341 550.069 632.741 542.949 632.741C535.829 632.741 525.264 637.296 525.264 659.84C525.264 682.384 536.472 686.392 542.949 686.392C549.426 686.392 560.634 682.338 560.634 659.84Z" fill="#F3A4C0"/>
<path d="M532.753 659.566C532.753 642.442 538.77 639.253 543.088 639.253C547.406 639.253 553.53 643.307 553.53 659.566C553.53 675.825 548.003 680.061 543.456 680.061C538.908 680.061 532.753 676.69 532.753 659.566Z" fill="#E71A64" stroke="#E71A64"/>
<path d="M726.755 42C727.146 185.876 727.165 329.752 727.112 473.627C727.107 485.502 724.728 497.08 721.56 508.485C715.579 530.015 705.535 549.682 692.865 567.913C684.82 579.489 675.853 590.468 666.758 601.26C659.401 609.99 651.715 618.561 643.32 626.276C629.328 639.133 615.122 651.85 600.146 663.526C581.149 678.335 561.645 692.566 541.697 706.07C524.956 717.405 507.388 727.193 489.797 737.231C477.293 743.368 464.343 749.773 452.905 756.132C427.735 743.607 398.218 729.808 374.277 715.103C350.153 700.285 327.214 683.812 304.623 666.84C295.36 659.88 286.525 652.284 277.99 644.44C264.669 632.198 251.289 619.954 238.81 606.878C222.753 590.053 208.725 571.543 197.136 551.29C187.921 535.184 180.491 518.34 176.696 500.117C175.179 492.832 173.714 485.36 173.691 477.968C173.241 332.906 173.007 187.843 172.729 42.3902C357.274 42 541.82 42 726.755 42ZM548.635 654.407C550.657 652.888 552.678 651.369 555.211 649.623C573.633 634.323 592.337 619.347 610.387 603.62C625.023 590.868 637.896 576.33 650.041 560.468C651.765 558.113 653.489 555.758 655.561 552.912C657.905 549.48 660.317 546.091 662.583 542.608C681.534 513.482 692.578 482.157 691.463 446.802C690.586 418.971 691.201 391.094 691.256 362.483C691.22 341.877 691.183 321.271 691.264 299.942C691.226 282.847 691.188 265.753 691.271 247.863C691.271 190.397 691.271 132.93 691.271 75.3029C689.555 75.3029 688.451 75.3029 687.347 75.3029C609.737 75.3029 532.126 75.3024 454.515 75.3084C453.407 75.3085 452.299 75.3909 450.415 75.3333C370.11 75.3333 289.805 75.3333 209.278 75.3333C209.278 77.6536 209.278 79.3103 209.278 80.967C209.278 114.793 209.269 148.619 209.286 182.445C209.29 189.788 209.39 197.132 209.204 205.096C209.248 209.357 209.292 213.618 209.278 218.632C209.278 266.819 209.278 315.006 209.251 363.995C209.251 395.767 209.112 427.54 209.357 459.31C209.414 466.742 210.208 474.274 211.639 481.569C216.809 507.924 229.268 530.987 244.986 553.034C251.351 560.809 257.716 568.584 264.379 576.881C273.237 585.909 282.095 594.936 291.215 604.301C291.444 604.46 291.673 604.619 292.151 605.285C300.577 612.645 308.701 620.389 317.498 627.276C331.519 638.254 345.986 648.66 360.611 659.689C362.973 661.331 365.336 662.974 368.179 664.953C393.813 682.325 420.318 698.232 447.85 712.441C450.812 713.97 453.117 713.396 455.601 711.999C468.175 704.929 480.744 697.851 493.279 690.712C494.422 689.952 496.837 688.291 496.837 688.291C505.002 683.192 513.167 678.092 521.86 672.873C523.952 671.387 526.044 669.901 528.676 668.206C535.168 663.676 541.661 659.147 548.635 654.407Z" fill="#313D4C"/>
<path d="M310.169 256.143C310.169 247.631 317.104 240.731 325.658 240.731H577.918C586.472 240.731 593.407 247.631 593.407 256.143V432.372C593.407 440.883 586.472 447.784 577.918 447.784H325.658C317.104 447.784 310.169 440.883 310.169 432.372V256.143Z" fill="#313D4C"/>
<path d="M430.398 477.553V447.646H472.948V477.553H500.516L512.732 512.826H390.567L403.291 477.553H430.398Z" fill="#313D4C"/>
<path d="M87.0007 670.959L98.3925 600.863L138.31 664.437L98.3925 690.206L109.555 800.863L13 650.289L87.0007 670.959Z" fill="#313D4C"/>
<path d="M120.9 793.283L114.424 702.287L160.588 761.91L120.9 793.283Z" fill="#313D4C"/>
<path d="M816.58 670.959L805.188 600.863L765.271 664.437L805.188 690.206L794.302 802.792L890.581 650.289L816.58 670.959Z" fill="#313D4C"/>
<path d="M782.68 793.283L789.157 702.287L742.993 761.91L782.68 793.283Z" fill="#313D4C"/>
<path d="M129.028 687.311L216.58 631.179C303.01 747.375 408.219 765.17 452.684 765.17V875C268.348 875 159.437 746.658 129.028 687.311Z" fill="#313D4C"/>
<path d="M776.338 687.311L688.787 631.179C602.356 747.375 497.147 765.17 452.683 765.17V875C637.018 875 745.929 746.659 776.338 687.311Z" fill="#313D4C"/>
<path d="M708.156 677.625L716.262 683.39L723.536 673.162L727.72 676.138L720.446 686.366L728.713 692.246L737.943 679.269L742.289 682.36L729.178 700.795L699.949 680.007L713.06 661.572L717.385 664.648L708.156 677.625Z" fill="white"/>
<path d="M711.638 694.437C713.62 696.164 715.152 698.081 716.234 700.187C717.316 702.293 717.934 704.465 718.087 706.705C718.241 708.945 717.915 711.194 717.108 713.453C716.302 715.712 715.003 717.87 713.21 719.926L704.229 730.229L677.191 706.662L686.172 696.359C687.965 694.302 689.931 692.726 692.071 691.629C694.199 690.522 696.382 689.892 698.622 689.739C700.849 689.574 703.08 689.884 705.314 690.668C707.548 691.453 709.655 692.709 711.638 694.437ZM707.139 699.597C705.656 698.304 704.154 697.347 702.635 696.724C701.114 696.078 699.622 695.776 698.16 695.818C696.696 695.836 695.284 696.185 693.924 696.864C692.575 697.531 691.325 698.525 690.173 699.847L685.593 705.101L704.629 721.693L709.208 716.438C710.36 715.117 711.174 713.743 711.651 712.315C712.138 710.875 712.297 709.435 712.128 707.993C711.957 706.528 711.454 705.091 710.619 703.684C709.783 702.252 708.623 700.89 707.139 699.597Z" fill="white"/>
<path d="M662.864 755.856C663.154 755.637 663.496 755.554 663.89 755.609L667.707 756.3C667.633 758.615 667.034 760.798 665.911 762.85C664.8 764.891 663.058 766.809 660.683 768.604C658.559 770.209 656.372 771.292 654.122 771.853C651.885 772.403 649.677 772.486 647.5 772.1C645.322 771.715 643.232 770.869 641.23 769.563C639.24 768.248 637.443 766.528 635.838 764.404C634.213 762.253 633.07 760.029 632.41 757.729C631.74 755.416 631.537 753.145 631.8 750.915C632.076 748.675 632.809 746.546 633.999 744.527C635.179 742.495 636.817 740.687 638.915 739.102C640.999 737.526 643.106 736.473 645.234 735.943C647.375 735.403 649.431 735.258 651.403 735.509L651.492 739.328C651.506 739.566 651.472 739.809 651.39 740.058C651.322 740.296 651.142 740.525 650.852 740.744C650.654 740.894 650.41 740.996 650.119 741.05C649.818 741.09 649.483 741.126 649.112 741.158C648.732 741.175 648.302 741.21 647.823 741.262C647.344 741.313 646.826 741.424 646.271 741.595C645.706 741.752 645.094 741.997 644.434 742.331C643.777 742.641 643.072 743.08 642.32 743.648C641.04 744.615 640.041 745.733 639.321 747.003C638.605 748.249 638.193 749.597 638.086 751.046C637.969 752.481 638.173 753.985 638.698 755.558C639.213 757.117 640.073 758.695 641.28 760.291C642.496 761.901 643.802 763.162 645.198 764.077C646.607 764.981 648.025 765.568 649.451 765.837C650.878 766.106 652.293 766.073 653.697 765.737C655.092 765.388 656.396 764.755 657.61 763.838C658.335 763.289 658.958 762.756 659.479 762.238C660.013 761.71 660.459 761.176 660.817 760.636C661.189 760.086 661.493 759.514 661.729 758.921C661.968 758.305 662.156 757.635 662.292 756.91C662.334 756.691 662.403 756.494 662.498 756.319C662.584 756.13 662.705 755.976 662.864 755.856Z" fill="white"/>
<path d="M687.225 721.22C689.054 723.109 690.436 725.166 691.371 727.391C692.306 729.593 692.773 731.835 692.772 734.115C692.77 736.395 692.289 738.645 691.33 740.863C690.359 743.069 688.893 745.121 686.933 747.02C684.985 748.906 682.892 750.299 680.656 751.199C678.408 752.086 676.139 752.5 673.847 752.44C671.568 752.368 669.337 751.835 667.155 750.841C664.96 749.835 662.949 748.388 661.12 746.499C659.291 744.61 657.915 742.559 656.991 740.346C656.056 738.12 655.59 735.868 655.591 733.587C655.605 731.295 656.097 729.046 657.068 726.84C658.028 724.621 659.482 722.569 661.43 720.683C662.737 719.417 664.116 718.381 665.567 717.574C667.007 716.755 668.478 716.159 669.981 715.786C671.473 715.4 672.984 715.237 674.515 715.297C676.046 715.333 677.551 715.58 679.029 716.036C680.507 716.493 681.934 717.159 683.312 718.035C684.701 718.899 686.006 719.961 687.225 721.22ZM682.325 725.965C680.956 724.552 679.541 723.471 678.079 722.722C676.606 721.962 675.14 721.529 673.68 721.423C672.22 721.318 670.783 721.546 669.371 722.108C667.97 722.659 666.641 723.544 665.381 724.763C664.122 725.983 663.189 727.289 662.582 728.683C661.986 730.065 661.712 731.493 661.759 732.967C661.817 734.43 662.202 735.91 662.915 737.406C663.616 738.891 664.651 740.34 666.02 741.754C667.389 743.168 668.81 744.255 670.283 745.015C671.745 745.764 673.205 746.191 674.665 746.296C676.126 746.378 677.556 746.144 678.957 745.593C680.369 745.031 681.705 744.14 682.964 742.921C684.224 741.702 685.151 740.401 685.746 739.019C686.353 737.625 686.633 736.203 686.587 734.752C686.528 733.289 686.148 731.816 685.447 730.331C684.735 728.834 683.694 727.379 682.325 725.965Z" fill="white"/>
<path d="M366.947 286.678C367.223 286.678 367.468 286.785 367.681 286.998L369.678 289.164C368.573 290.533 367.21 291.581 365.591 292.309C363.984 293.037 362.05 293.401 359.79 293.401C357.769 293.401 355.948 293.056 354.328 292.366C352.721 291.675 351.347 290.715 350.204 289.484C349.061 288.254 348.183 286.785 347.567 285.077C346.965 283.37 346.663 281.505 346.663 279.484C346.663 277.437 346.99 275.566 347.643 273.871C348.296 272.164 349.212 270.695 350.392 269.464C351.585 268.234 353.004 267.28 354.649 266.602C356.293 265.911 358.114 265.566 360.11 265.566C362.094 265.566 363.852 265.892 365.384 266.545C366.928 267.198 368.24 268.052 369.32 269.107L367.625 271.461C367.524 271.611 367.392 271.743 367.229 271.856C367.079 271.969 366.865 272.026 366.589 272.026C366.401 272.026 366.206 271.976 366.005 271.875C365.804 271.762 365.584 271.63 365.346 271.48C365.107 271.316 364.831 271.141 364.517 270.952C364.203 270.764 363.839 270.594 363.425 270.444C363.011 270.281 362.527 270.149 361.975 270.048C361.435 269.935 360.807 269.879 360.091 269.879C358.874 269.879 357.756 270.099 356.739 270.538C355.735 270.965 354.868 271.593 354.14 272.421C353.412 273.237 352.847 274.242 352.445 275.435C352.043 276.615 351.842 277.965 351.842 279.484C351.842 281.015 352.056 282.378 352.483 283.571C352.922 284.763 353.512 285.768 354.253 286.584C354.994 287.4 355.867 288.028 356.871 288.467C357.875 288.894 358.955 289.107 360.11 289.107C360.801 289.107 361.422 289.07 361.975 288.994C362.54 288.919 363.055 288.8 363.519 288.637C363.996 288.473 364.442 288.266 364.856 288.015C365.283 287.751 365.704 287.431 366.118 287.055C366.244 286.942 366.375 286.854 366.514 286.791C366.652 286.716 366.796 286.678 366.947 286.678Z" fill="white"/>
<path d="M398.53 279.484C398.53 281.48 398.198 283.332 397.532 285.04C396.879 286.734 395.95 288.203 394.745 289.446C393.539 290.689 392.089 291.663 390.394 292.366C388.699 293.056 386.816 293.401 384.744 293.401C382.685 293.401 380.808 293.056 379.113 292.366C377.418 291.663 375.962 290.689 374.744 289.446C373.539 288.203 372.603 286.734 371.938 285.04C371.272 283.332 370.94 281.48 370.94 279.484C370.94 277.487 371.272 275.642 371.938 273.947C372.603 272.239 373.539 270.764 374.744 269.521C375.962 268.278 377.418 267.311 379.113 266.621C380.808 265.918 382.685 265.566 384.744 265.566C386.125 265.566 387.425 265.729 388.643 266.056C389.861 266.37 390.978 266.822 391.995 267.412C393.012 267.989 393.922 268.699 394.726 269.54C395.542 270.368 396.233 271.298 396.798 272.327C397.363 273.357 397.79 274.474 398.078 275.679C398.38 276.885 398.53 278.153 398.53 279.484ZM393.351 279.484C393.351 277.99 393.15 276.652 392.748 275.472C392.347 274.279 391.775 273.269 391.035 272.44C390.294 271.611 389.39 270.977 388.323 270.538C387.268 270.099 386.075 269.879 384.744 269.879C383.414 269.879 382.214 270.099 381.147 270.538C380.093 270.977 379.189 271.611 378.435 272.44C377.694 273.269 377.123 274.279 376.721 275.472C376.32 276.652 376.119 277.99 376.119 279.484C376.119 280.978 376.32 282.321 376.721 283.514C377.123 284.694 377.694 285.699 378.435 286.527C379.189 287.343 380.093 287.971 381.147 288.411C382.214 288.85 383.414 289.07 384.744 289.07C386.075 289.07 387.268 288.85 388.323 288.411C389.39 287.971 390.294 287.343 391.035 286.527C391.775 285.699 392.347 284.694 392.748 283.514C393.15 282.321 393.351 280.978 393.351 279.484Z" fill="white"/>
<path d="M432.51 265.867V293.1H428.046V275.51C428.046 274.807 428.084 274.047 428.159 273.231L419.929 288.693C419.54 289.434 418.944 289.804 418.14 289.804H417.424C416.621 289.804 416.024 289.434 415.635 288.693L407.311 273.175C407.349 273.589 407.38 273.997 407.405 274.399C407.43 274.801 407.443 275.171 407.443 275.51V293.1H402.979V265.867H406.802C407.028 265.867 407.223 265.874 407.386 265.886C407.55 265.899 407.694 265.93 407.819 265.98C407.958 266.031 408.077 266.112 408.177 266.225C408.29 266.338 408.397 266.489 408.497 266.677L416.652 281.8C416.866 282.202 417.06 282.616 417.236 283.043C417.424 283.47 417.606 283.91 417.782 284.362C417.958 283.897 418.14 283.451 418.328 283.024C418.517 282.585 418.718 282.164 418.931 281.763L426.973 266.677C427.073 266.489 427.18 266.338 427.293 266.225C427.406 266.112 427.525 266.031 427.651 265.98C427.789 265.93 427.94 265.899 428.103 265.886C428.266 265.874 428.461 265.867 428.687 265.867H432.51Z" fill="white"/>
<path d="M447.437 279.559C448.367 279.559 449.176 279.446 449.867 279.22C450.558 278.981 451.129 278.649 451.581 278.222C452.045 277.782 452.391 277.255 452.617 276.64C452.843 276.012 452.956 275.315 452.956 274.549C452.956 273.821 452.843 273.162 452.617 272.572C452.391 271.982 452.052 271.48 451.6 271.065C451.148 270.651 450.576 270.337 449.886 270.124C449.195 269.898 448.379 269.785 447.437 269.785H443.652V279.559H447.437ZM447.437 265.867C449.258 265.867 450.834 266.081 452.165 266.508C453.495 266.935 454.594 267.531 455.46 268.297C456.327 269.063 456.967 269.979 457.381 271.046C457.808 272.114 458.022 273.281 458.022 274.549C458.022 275.868 457.802 277.079 457.363 278.184C456.923 279.277 456.264 280.218 455.385 281.009C454.506 281.8 453.401 282.415 452.07 282.855C450.752 283.294 449.208 283.514 447.437 283.514H443.652V293.1H438.586V265.867H447.437Z" fill="white"/>
<path d="M472.868 289.013C473.847 289.013 474.72 288.85 475.485 288.524C476.264 288.197 476.917 287.739 477.444 287.149C477.971 286.559 478.373 285.843 478.649 285.002C478.938 284.161 479.083 283.219 479.083 282.177V265.867H484.149V282.177C484.149 283.797 483.885 285.297 483.358 286.678C482.843 288.047 482.096 289.233 481.117 290.237C480.15 291.229 478.97 292.008 477.576 292.573C476.182 293.125 474.613 293.401 472.868 293.401C471.11 293.401 469.534 293.125 468.14 292.573C466.747 292.008 465.56 291.229 464.581 290.237C463.614 289.233 462.867 288.047 462.34 286.678C461.825 285.297 461.568 283.797 461.568 282.177V265.867H466.634V282.158C466.634 283.2 466.772 284.142 467.048 284.983C467.337 285.824 467.745 286.546 468.272 287.149C468.812 287.739 469.465 288.197 470.231 288.524C471.009 288.85 471.888 289.013 472.868 289.013Z" fill="white"/>
<path d="M508.884 270.029H500.672V293.1H495.606V270.029H487.395V265.867H508.884V270.029Z" fill="white"/>
<path d="M517.532 269.898V277.45H527.062V281.348H517.532V289.051H529.623V293.1H512.447V265.867H529.623V269.898H517.532Z" fill="white"/>
<path d="M542.343 278.825C543.297 278.825 544.126 278.705 544.829 278.467C545.545 278.228 546.128 277.902 546.58 277.487C547.045 277.061 547.39 276.558 547.616 275.981C547.842 275.403 547.955 274.769 547.955 274.079C547.955 272.697 547.497 271.637 546.58 270.896C545.676 270.155 544.289 269.785 542.418 269.785H539.179V278.825H542.343ZM555.376 293.1H550.799C549.933 293.1 549.305 292.761 548.916 292.083L543.19 283.363C542.977 283.037 542.738 282.805 542.475 282.667C542.224 282.528 541.847 282.459 541.345 282.459H539.179V293.1H534.113V265.867H542.418C544.264 265.867 545.846 266.062 547.164 266.451C548.495 266.828 549.581 267.361 550.422 268.052C551.276 268.743 551.904 269.571 552.306 270.538C552.707 271.492 552.908 272.547 552.908 273.702C552.908 274.618 552.77 275.485 552.494 276.301C552.23 277.117 551.841 277.858 551.326 278.523C550.824 279.189 550.196 279.772 549.443 280.275C548.702 280.777 547.855 281.172 546.901 281.461C547.227 281.65 547.528 281.876 547.805 282.139C548.081 282.39 548.332 282.692 548.558 283.043L555.376 293.1Z" fill="white"/>
<path d="M369.064 312.462C368.858 312.823 368.635 313.088 368.395 313.26C368.172 313.414 367.889 313.491 367.546 313.491C367.186 313.491 366.791 313.363 366.363 313.106C365.951 312.831 365.454 312.531 364.871 312.205C364.288 311.879 363.602 311.588 362.813 311.331C362.041 311.056 361.124 310.919 360.06 310.919C359.1 310.919 358.26 311.039 357.54 311.279C356.819 311.502 356.21 311.819 355.713 312.231C355.233 312.643 354.873 313.14 354.633 313.723C354.393 314.289 354.273 314.915 354.273 315.601C354.273 316.475 354.513 317.204 354.993 317.787C355.49 318.37 356.142 318.868 356.948 319.279C357.754 319.691 358.671 320.059 359.7 320.385C360.729 320.711 361.784 321.063 362.864 321.44C363.945 321.8 364.999 322.229 366.028 322.726C367.057 323.206 367.975 323.824 368.781 324.578C369.587 325.316 370.23 326.225 370.71 327.305C371.207 328.385 371.456 329.697 371.456 331.241C371.456 332.921 371.164 334.499 370.581 335.974C370.015 337.431 369.175 338.709 368.06 339.806C366.963 340.887 365.617 341.744 364.022 342.379C362.427 342.996 360.601 343.305 358.543 343.305C357.359 343.305 356.193 343.185 355.044 342.945C353.895 342.722 352.789 342.396 351.726 341.967C350.68 341.538 349.694 341.024 348.768 340.424C347.842 339.824 347.019 339.155 346.298 338.417L348.331 335.099C348.502 334.859 348.725 334.662 348.999 334.507C349.274 334.336 349.565 334.25 349.874 334.25C350.303 334.25 350.766 334.43 351.263 334.79C351.76 335.133 352.352 335.519 353.038 335.948C353.724 336.377 354.521 336.771 355.43 337.131C356.356 337.474 357.462 337.646 358.749 337.646C360.721 337.646 362.247 337.183 363.327 336.257C364.408 335.313 364.948 333.967 364.948 332.218C364.948 331.241 364.699 330.443 364.202 329.826C363.722 329.208 363.079 328.694 362.273 328.282C361.467 327.854 360.549 327.494 359.52 327.202C358.491 326.91 357.445 326.593 356.382 326.25C355.319 325.907 354.273 325.496 353.244 325.015C352.215 324.535 351.297 323.909 350.491 323.138C349.685 322.366 349.034 321.406 348.536 320.257C348.056 319.091 347.816 317.659 347.816 315.961C347.816 314.606 348.082 313.286 348.614 311.999C349.162 310.713 349.951 309.573 350.98 308.578C352.009 307.584 353.278 306.786 354.787 306.186C356.296 305.586 358.028 305.286 359.983 305.286C362.178 305.286 364.202 305.629 366.054 306.315C367.906 307.001 369.484 307.961 370.787 309.196L369.064 312.462Z" fill="white"/>
<path d="M403.035 334.122C403.413 334.122 403.747 334.267 404.039 334.559L406.765 337.517C405.256 339.386 403.396 340.818 401.183 341.813C398.988 342.808 396.347 343.305 393.261 343.305C390.5 343.305 388.013 342.833 385.801 341.89C383.606 340.947 381.728 339.635 380.167 337.954C378.607 336.274 377.406 334.267 376.566 331.935C375.743 329.603 375.331 327.056 375.331 324.295C375.331 321.5 375.777 318.945 376.669 316.63C377.561 314.297 378.813 312.291 380.425 310.61C382.054 308.93 383.992 307.626 386.238 306.7C388.485 305.757 390.971 305.286 393.698 305.286C396.407 305.286 398.808 305.732 400.9 306.623C403.01 307.515 404.802 308.681 406.277 310.122L403.961 313.337C403.824 313.543 403.644 313.723 403.421 313.877C403.215 314.032 402.924 314.109 402.547 314.109C402.289 314.109 402.024 314.04 401.749 313.903C401.475 313.749 401.175 313.569 400.849 313.363C400.523 313.14 400.146 312.9 399.717 312.643C399.288 312.385 398.791 312.154 398.225 311.948C397.659 311.725 396.999 311.545 396.244 311.408C395.507 311.253 394.65 311.176 393.672 311.176C392.009 311.176 390.482 311.476 389.093 312.077C387.721 312.66 386.538 313.517 385.543 314.649C384.549 315.764 383.777 317.136 383.228 318.765C382.68 320.377 382.405 322.22 382.405 324.295C382.405 326.387 382.697 328.248 383.28 329.877C383.88 331.506 384.686 332.878 385.698 333.993C386.71 335.108 387.901 335.965 389.273 336.565C390.645 337.148 392.12 337.44 393.698 337.44C394.641 337.44 395.49 337.388 396.244 337.286C397.016 337.183 397.719 337.02 398.354 336.797C399.005 336.574 399.614 336.291 400.18 335.948C400.763 335.588 401.338 335.151 401.904 334.636C402.075 334.482 402.255 334.362 402.444 334.276C402.632 334.173 402.83 334.122 403.035 334.122Z" fill="white"/>
<path d="M418.451 342.893H411.505V305.697H418.451V342.893Z" fill="white"/>
<path d="M433.724 311.202V321.517H446.74V326.842H433.724V337.363H450.238V342.893H426.778V305.697H450.238V311.202H433.724Z" fill="white"/>
<path d="M487.727 305.697V342.893H484.177C483.629 342.893 483.166 342.808 482.788 342.636C482.428 342.447 482.077 342.139 481.734 341.71L462.313 316.913C462.415 318.044 462.467 319.091 462.467 320.051V342.893H456.37V305.697H459.997C460.289 305.697 460.538 305.714 460.743 305.749C460.966 305.766 461.155 305.817 461.309 305.903C461.481 305.972 461.644 306.083 461.798 306.237C461.952 306.375 462.124 306.563 462.313 306.803L481.811 331.704C481.759 331.103 481.717 330.512 481.682 329.929C481.648 329.346 481.631 328.805 481.631 328.308V305.697H487.727Z" fill="white"/>
<path d="M521.554 334.122C521.931 334.122 522.266 334.267 522.557 334.559L525.284 337.517C523.775 339.386 521.914 340.818 519.702 341.813C517.507 342.808 514.866 343.305 511.779 343.305C509.018 343.305 506.531 342.833 504.319 341.89C502.124 340.947 500.246 339.635 498.686 337.954C497.125 336.274 495.925 334.267 495.085 331.935C494.261 329.603 493.85 327.056 493.85 324.295C493.85 321.5 494.296 318.945 495.187 316.63C496.079 314.297 497.331 312.291 498.943 310.61C500.572 308.93 502.51 307.626 504.757 306.7C507.003 305.757 509.49 305.286 512.216 305.286C514.926 305.286 517.327 305.732 519.419 306.623C521.528 307.515 523.32 308.681 524.795 310.122L522.48 313.337C522.343 313.543 522.163 313.723 521.94 313.877C521.734 314.032 521.442 314.109 521.065 314.109C520.808 314.109 520.542 314.04 520.268 313.903C519.993 313.749 519.693 313.569 519.367 313.363C519.042 313.14 518.664 312.9 518.236 312.643C517.807 312.385 517.31 312.154 516.744 311.948C516.178 311.725 515.518 311.545 514.763 311.408C514.026 311.253 513.168 311.176 512.191 311.176C510.527 311.176 509.001 311.476 507.612 312.077C506.24 312.66 505.057 313.517 504.062 314.649C503.067 315.764 502.296 317.136 501.747 318.765C501.198 320.377 500.924 322.22 500.924 324.295C500.924 326.387 501.215 328.248 501.798 329.877C502.399 331.506 503.205 332.878 504.216 333.993C505.228 335.108 506.42 335.965 507.792 336.565C509.164 337.148 510.639 337.44 512.216 337.44C513.16 337.44 514.008 337.388 514.763 337.286C515.535 337.183 516.238 337.02 516.872 336.797C517.524 336.574 518.133 336.291 518.699 335.948C519.282 335.588 519.856 335.151 520.422 334.636C520.594 334.482 520.774 334.362 520.962 334.276C521.151 334.173 521.348 334.122 521.554 334.122Z" fill="white"/>
<path d="M536.969 311.202V321.517H549.985V326.842H536.969V337.363H553.484V342.893H530.024V305.697H553.484V311.202H536.969Z" fill="white"/>
<path d="M390.952 403.526C391.569 403.526 392.115 403.764 392.592 404.241L397.047 409.074C394.581 412.128 391.541 414.468 387.926 416.093C384.34 417.718 380.025 418.531 374.981 418.531C370.47 418.531 366.407 417.761 362.792 416.219C359.206 414.678 356.137 412.535 353.588 409.789C351.038 407.043 349.076 403.764 347.703 399.954C346.358 396.143 345.686 391.982 345.686 387.471C345.686 382.903 346.414 378.728 347.872 374.946C349.329 371.135 351.374 367.857 354.008 365.111C356.67 362.365 359.836 360.235 363.507 358.722C367.177 357.181 371.24 356.41 375.696 356.41C380.123 356.41 384.046 357.139 387.464 358.596C390.91 360.053 393.839 361.958 396.248 364.312L392.466 369.566C392.241 369.902 391.947 370.196 391.583 370.449C391.247 370.701 390.77 370.827 390.154 370.827C389.734 370.827 389.299 370.715 388.851 370.491C388.403 370.238 387.912 369.944 387.38 369.608C386.848 369.244 386.231 368.851 385.531 368.431C384.83 368.011 384.018 367.633 383.093 367.296C382.168 366.932 381.089 366.638 379.857 366.414C378.652 366.161 377.251 366.035 375.653 366.035C372.936 366.035 370.442 366.526 368.172 367.506C365.931 368.459 363.997 369.86 362.372 371.709C360.747 373.531 359.486 375.772 358.589 378.434C357.693 381.068 357.244 384.08 357.244 387.471C357.244 390.889 357.721 393.929 358.673 396.591C359.654 399.253 360.971 401.495 362.624 403.316C364.277 405.137 366.225 406.538 368.466 407.519C370.708 408.472 373.118 408.948 375.696 408.948C377.237 408.948 378.624 408.864 379.857 408.696C381.117 408.528 382.266 408.262 383.303 407.897C384.368 407.533 385.362 407.071 386.287 406.51C387.24 405.922 388.178 405.207 389.103 404.367C389.383 404.115 389.678 403.919 389.986 403.778C390.294 403.61 390.616 403.526 390.952 403.526Z" fill="white"/>
<path d="M440.391 408.528V417.859H404.792V357.083H416.098V408.528H440.391Z" fill="white"/>
<path d="M471.283 408.738C473.469 408.738 475.416 408.374 477.126 407.645C478.863 406.917 480.32 405.894 481.497 404.577C482.674 403.26 483.57 401.663 484.187 399.786C484.831 397.908 485.153 395.807 485.153 393.481V357.083H496.459V393.481C496.459 397.096 495.871 400.444 494.694 403.526C493.545 406.58 491.878 409.228 489.693 411.47C487.535 413.684 484.901 415.421 481.791 416.682C478.681 417.915 475.178 418.531 471.283 418.531C467.361 418.531 463.844 417.915 460.734 416.682C457.624 415.421 454.976 413.684 452.79 411.47C450.633 409.228 448.965 406.58 447.788 403.526C446.64 400.444 446.065 397.096 446.065 393.481V357.083H457.371V393.439C457.371 395.765 457.68 397.866 458.296 399.744C458.94 401.621 459.851 403.232 461.028 404.577C462.233 405.894 463.69 406.917 465.399 407.645C467.136 408.374 469.098 408.738 471.283 408.738Z" fill="white"/>
<path d="M531.949 409.032C534.05 409.032 535.815 408.78 537.244 408.276C538.674 407.771 539.808 407.099 540.649 406.258C541.518 405.418 542.134 404.437 542.498 403.316C542.891 402.195 543.087 401.004 543.087 399.744C543.087 398.427 542.877 397.25 542.456 396.213C542.036 395.148 541.377 394.252 540.481 393.523C539.584 392.767 538.421 392.192 536.992 391.8C535.591 391.408 533.896 391.211 531.907 391.211H520.516V409.032H531.949ZM520.516 365.825V383.394H529.511C533.378 383.394 536.292 382.693 538.253 381.292C540.243 379.891 541.237 377.664 541.237 374.61C541.237 371.443 540.341 369.188 538.547 367.843C536.754 366.498 533.952 365.825 530.141 365.825H520.516ZM530.141 357.083C534.12 357.083 537.525 357.461 540.355 358.218C543.185 358.974 545.496 360.053 547.29 361.454C549.111 362.855 550.442 364.55 551.283 366.54C552.123 368.529 552.543 370.771 552.543 373.265C552.543 374.694 552.333 376.067 551.913 377.384C551.493 378.672 550.834 379.891 549.938 381.04C549.069 382.161 547.948 383.184 546.575 384.108C545.23 385.033 543.619 385.818 541.742 386.462C550.092 388.339 554.267 392.851 554.267 399.996C554.267 402.574 553.776 404.955 552.796 407.141C551.815 409.326 550.386 411.218 548.509 412.815C546.631 414.384 544.32 415.617 541.574 416.514C538.828 417.41 535.689 417.859 532.159 417.859H509.21V357.083H530.141Z" fill="white"/>
<path d="M369.273 795.595C368.975 795.862 368.691 796.038 368.419 796.123C368.168 796.197 367.886 796.182 367.572 796.079C367.242 795.97 366.92 795.733 366.605 795.368C366.311 794.992 365.946 794.567 365.51 794.093C365.075 793.618 364.535 793.144 363.89 792.67C363.266 792.186 362.467 791.783 361.494 791.462C360.614 791.172 359.808 791.028 359.076 791.031C358.349 791.017 357.696 791.124 357.116 791.351C356.552 791.583 356.072 791.929 355.676 792.391C355.286 792.837 354.987 793.374 354.78 794.002C354.515 794.803 354.515 795.543 354.779 796.222C355.058 796.906 355.505 797.558 356.119 798.178C356.732 798.799 357.461 799.413 358.305 800.022C359.149 800.632 360.009 801.272 360.884 801.944C361.765 802.6 362.601 803.311 363.393 804.077C364.191 804.828 364.844 805.67 365.355 806.604C365.87 807.523 366.185 808.55 366.298 809.684C366.427 810.824 366.259 812.1 365.793 813.514C365.285 815.053 364.542 816.409 363.562 817.584C362.604 818.748 361.449 819.664 360.096 820.333C358.765 820.991 357.273 821.369 355.621 821.469C353.974 821.552 352.208 821.284 350.324 820.662C349.24 820.305 348.208 819.843 347.229 819.276C346.244 818.725 345.329 818.092 344.485 817.379C343.657 816.67 342.909 815.901 342.242 815.072C341.575 814.243 341.023 813.381 340.587 812.489L343.45 810.063C343.679 809.895 343.943 809.782 344.241 809.724C344.544 809.649 344.837 809.659 345.119 809.752C345.512 809.882 345.882 810.186 346.228 810.666C346.58 811.131 347.006 811.663 347.504 812.262C348.003 812.862 348.614 813.464 349.338 814.069C350.082 814.662 351.043 815.153 352.221 815.542C354.027 816.137 355.565 816.174 356.834 815.652C358.108 815.115 359.009 814.045 359.538 812.443C359.833 811.548 359.846 810.743 359.577 810.027C359.323 809.317 358.89 808.652 358.276 808.031C357.667 807.395 356.936 806.788 356.082 806.211C355.228 805.633 354.365 805.027 353.495 804.391C352.625 803.756 351.791 803.063 350.994 802.313C350.197 801.562 349.546 800.712 349.041 799.762C348.536 798.812 348.229 797.736 348.12 796.533C348.033 795.32 348.245 793.937 348.758 792.382C349.167 791.141 349.809 790.012 350.685 788.995C351.576 787.983 352.642 787.177 353.885 786.576C355.128 785.976 356.531 785.629 358.094 785.535C359.657 785.441 361.334 785.69 363.124 786.28C365.134 786.943 366.884 787.868 368.373 789.056C369.862 790.243 371.017 791.599 371.837 793.123L369.273 795.595Z" fill="white"/>
<path d="M546.748 792.325C546.644 792.711 546.502 793.014 546.32 793.233C546.151 793.432 545.906 793.574 545.586 793.658C545.25 793.747 544.851 793.724 544.388 793.59C543.937 793.435 543.399 793.278 542.775 793.118C542.151 792.958 541.44 792.855 540.641 792.809C539.854 792.744 538.965 792.842 537.974 793.104C537.078 793.34 536.325 793.659 535.712 794.06C535.096 794.445 534.606 794.891 534.244 795.397C533.898 795.899 533.684 796.452 533.604 797.054C533.52 797.641 533.562 798.254 533.731 798.894C533.946 799.709 534.35 800.33 534.941 800.755C535.548 801.176 536.278 801.479 537.131 801.664C537.984 801.849 538.93 801.967 539.97 802.018C541.009 802.068 542.079 802.136 543.179 802.222C544.275 802.291 545.364 802.431 546.446 802.641C547.523 802.836 548.531 803.185 549.468 803.69C550.401 804.179 551.224 804.868 551.938 805.757C552.668 806.642 553.223 807.804 553.603 809.243C554.017 810.809 554.134 812.352 553.953 813.871C553.785 815.369 553.316 816.767 552.547 818.065C551.79 819.342 550.746 820.473 549.416 821.458C548.081 822.426 546.454 823.164 544.536 823.671C543.432 823.962 542.316 824.137 541.185 824.196C540.059 824.272 538.948 824.24 537.851 824.102C536.77 823.96 535.724 823.724 534.713 823.392C533.702 823.061 532.77 822.64 531.916 822.13L532.994 818.536C533.094 818.27 533.254 818.031 533.471 817.819C533.685 817.592 533.936 817.44 534.223 817.364C534.623 817.258 535.099 817.312 535.652 817.526C536.2 817.723 536.846 817.937 537.591 818.168C538.337 818.398 539.177 818.57 540.113 818.682C541.061 818.773 542.134 818.661 543.334 818.344C545.172 817.858 546.481 817.051 547.26 815.921C548.035 814.776 548.207 813.388 547.776 811.757C547.536 810.845 547.107 810.163 546.492 809.71C545.892 809.253 545.166 808.932 544.313 808.746C543.456 808.545 542.512 808.435 541.481 808.417C540.45 808.399 539.396 808.361 538.32 808.303C537.245 808.245 536.168 808.119 535.091 807.925C534.013 807.73 533.004 807.373 532.062 806.852C531.121 806.331 530.276 805.596 529.53 804.647C528.795 803.678 528.218 802.403 527.8 800.82C527.467 799.557 527.389 798.26 527.568 796.93C527.763 795.596 528.217 794.338 528.932 793.158C529.646 791.977 530.633 790.921 531.892 789.99C533.151 789.058 534.692 788.352 536.514 787.871C538.561 787.33 540.532 787.151 542.427 787.335C544.323 787.518 546.031 788.025 547.55 788.855L546.748 792.325Z" fill="white"/>
<path d="M559.153 787.602L562.546 796.952L574.344 792.67L576.096 797.497L564.298 801.779L567.759 811.315L582.728 805.883L584.548 810.896L563.283 818.613L551.047 784.897L572.311 777.18L574.122 782.17L559.153 787.602Z" fill="white"/>
<path d="M207.247 691.248L199.609 697.619L207.648 707.258L203.705 710.547L195.666 700.908L187.875 707.406L198.075 719.635L193.98 723.051L179.49 705.679L207.034 682.705L221.524 700.077L217.447 703.477L207.247 691.248Z" fill="white"/>
<path d="M407.027 812.201C406.814 814.822 406.179 817.217 405.123 819.388C404.085 821.543 402.709 823.372 400.994 824.875C399.279 826.378 397.271 827.501 394.971 828.243C392.672 828.968 390.163 829.22 387.443 828.999C384.74 828.779 382.313 828.125 380.162 827.038C378.012 825.934 376.204 824.501 374.738 822.739C373.288 820.979 372.217 818.95 371.525 816.654C370.834 814.342 370.595 811.875 370.808 809.254C371.021 806.634 371.655 804.246 372.709 802.092C373.765 799.922 375.151 798.085 376.866 796.582C378.597 795.081 380.612 793.967 382.911 793.242C385.211 792.5 387.713 792.239 390.416 792.458C392.229 792.606 393.918 792.959 395.481 793.518C397.047 794.06 398.465 794.772 399.737 795.656C401.011 796.522 402.13 797.551 403.095 798.741C404.078 799.916 404.885 801.209 405.517 802.621C406.148 804.033 406.589 805.546 406.84 807.159C407.107 808.773 407.169 810.454 407.027 812.201ZM400.228 811.648C400.388 809.687 400.267 807.91 399.865 806.318C399.465 804.709 398.823 803.321 397.939 802.154C397.055 800.987 395.936 800.058 394.582 799.367C393.245 798.678 391.703 798.262 389.955 798.12C388.208 797.978 386.611 798.138 385.163 798.601C383.732 799.065 382.477 799.801 381.4 800.809C380.339 801.817 379.481 803.083 378.826 804.606C378.173 806.112 377.766 807.846 377.607 809.808C377.447 811.769 377.567 813.554 377.967 815.163C378.369 816.755 379.011 818.134 379.895 819.301C380.797 820.453 381.917 821.374 383.254 822.063C384.608 822.754 386.159 823.171 387.906 823.313C389.653 823.455 391.242 823.294 392.674 822.83C394.122 822.367 395.375 821.639 396.435 820.647C397.496 819.638 398.353 818.381 399.007 816.874C399.661 815.351 400.069 813.609 400.228 811.648Z" fill="white"/>
<path d="M435.878 825.844C436.242 825.844 436.564 825.984 436.845 826.265L439.475 829.118C438.019 830.92 436.225 832.301 434.092 833.26C431.975 834.219 429.429 834.699 426.452 834.699C423.79 834.699 421.392 834.244 419.259 833.335C417.142 832.425 415.331 831.16 413.827 829.54C412.322 827.919 411.164 825.984 410.354 823.735C409.56 821.486 409.163 819.031 409.163 816.368C409.163 813.673 409.593 811.209 410.453 808.976C411.313 806.728 412.52 804.793 414.075 803.172C415.646 801.552 417.514 800.295 419.68 799.402C421.847 798.492 424.245 798.038 426.874 798.038C429.487 798.038 431.802 798.468 433.819 799.327C435.853 800.187 437.581 801.312 439.003 802.701L436.771 805.801C436.639 806 436.465 806.174 436.25 806.322C436.052 806.471 435.77 806.546 435.407 806.546C435.159 806.546 434.902 806.479 434.638 806.347C434.373 806.198 434.084 806.025 433.77 805.826C433.455 805.611 433.092 805.38 432.678 805.132C432.265 804.884 431.785 804.66 431.239 804.462C430.694 804.247 430.057 804.073 429.33 803.941C428.618 803.792 427.792 803.718 426.849 803.718C425.245 803.718 423.773 804.007 422.434 804.586C421.111 805.148 419.97 805.975 419.011 807.067C418.052 808.141 417.307 809.464 416.778 811.035C416.249 812.59 415.985 814.367 415.985 816.368C415.985 818.386 416.266 820.18 416.828 821.751C417.407 823.322 418.184 824.645 419.16 825.72C420.135 826.795 421.284 827.621 422.607 828.2C423.93 828.762 425.352 829.044 426.874 829.044C427.783 829.044 428.602 828.994 429.33 828.895C430.074 828.795 430.752 828.638 431.363 828.423C431.992 828.208 432.579 827.936 433.125 827.605C433.687 827.258 434.241 826.836 434.787 826.34C434.952 826.191 435.126 826.075 435.307 825.992C435.489 825.893 435.68 825.844 435.878 825.844Z" fill="white"/>
<path d="M450.285 834.594L443.588 834.525L443.957 798.659L450.654 798.728L450.285 834.594Z" fill="white"/>
<path d="M527.014 827.487L520.424 828.681L514.028 793.388L520.618 792.194L527.014 827.487Z" fill="white"/>
<path d="M477.236 820.474L472.348 808.747C472.11 808.228 471.859 807.61 471.596 806.893C471.332 806.177 471.066 805.402 470.798 804.57C470.62 805.422 470.432 806.225 470.234 806.978C470.035 807.716 469.84 808.361 469.649 808.916L465.837 820.978L477.236 820.474ZM489.605 833.484L484.45 833.712C483.872 833.737 483.395 833.618 483.019 833.353C482.643 833.071 482.354 832.72 482.153 832.299L479.154 825.107L464.311 825.763L461.957 833.191C461.842 833.577 461.601 833.935 461.235 834.266C460.869 834.597 460.405 834.774 459.843 834.799L454.639 835.029L467.156 798.573L473.946 798.273L489.605 833.484Z" fill="white"/>
<path d="M221.275 731.761L226.556 720.205C226.775 719.678 227.058 719.074 227.404 718.394C227.751 717.713 228.138 716.992 228.566 716.229C227.821 716.678 227.104 717.086 226.416 717.453C225.74 717.807 225.134 718.103 224.598 718.34L213.159 723.741L221.275 731.761ZM220.138 749.676L216.468 746.05C216.056 745.643 215.819 745.212 215.758 744.756C215.709 744.289 215.77 743.838 215.943 743.404L219.18 736.316L208.611 725.873L201.563 729.196C201.201 729.373 200.775 729.44 200.284 729.396C199.792 729.352 199.346 729.133 198.947 728.738L195.241 725.077L230.49 709.482L235.325 714.259L220.138 749.676Z" fill="white"/>
<path d="M244.128 744.606C245.103 745.399 246.05 745.965 246.966 746.305C247.896 746.655 248.764 746.806 249.57 746.758C250.4 746.707 251.17 746.481 251.88 746.078C252.591 745.675 253.233 745.121 253.806 744.415C254.953 743.003 255.366 741.538 255.044 740.019C254.735 738.511 253.624 736.981 251.712 735.427L248.4 732.737L240.893 741.979L244.128 744.606ZM245.596 770.022L240.918 766.222C240.032 765.503 239.672 764.635 239.837 763.618L241.225 749.95C241.278 749.439 241.227 749.003 241.072 748.643C240.93 748.294 240.603 747.91 240.089 747.493L237.875 745.695L229.039 756.573L223.86 752.366L246.474 724.526L254.965 731.423C256.852 732.955 258.307 734.468 259.332 735.961C260.38 737.451 261.047 738.898 261.333 740.303C261.633 741.718 261.586 743.086 261.194 744.408C260.813 745.717 260.142 746.962 259.183 748.143C258.422 749.08 257.561 749.851 256.601 750.456C255.654 751.071 254.641 751.505 253.562 751.758C252.496 752.021 251.369 752.097 250.182 751.985C249.008 751.883 247.813 751.583 246.598 751.086C246.775 751.55 246.895 752.031 246.959 752.53C247.033 753.016 247.039 753.533 246.978 754.08L245.596 770.022Z" fill="white"/>
<path d="M294.334 758.969L274.769 789.031L271.9 787.163C271.457 786.875 271.128 786.562 270.913 786.225C270.721 785.883 270.599 785.449 270.548 784.922L267.895 754.665C267.383 755.634 266.874 756.507 266.369 757.283L254.354 775.744L249.427 772.537L268.992 742.475L271.923 744.383C272.159 744.537 272.351 744.681 272.499 744.817C272.67 744.948 272.796 745.089 272.875 745.24C272.978 745.385 273.051 745.561 273.094 745.767C273.147 745.959 273.186 746.202 273.213 746.495L275.873 776.875C276.148 776.363 276.424 775.862 276.703 775.373C276.982 774.884 277.252 774.438 277.514 774.036L289.407 755.762L294.334 758.969Z" fill="white"/>
<path d="M514.08 824.857L514.68 830.33L493.795 832.619L489.888 796.965L496.52 796.238L499.828 826.419L514.08 824.857Z" fill="white"/>
<path d="M180.876 698.062L176.387 701.252L164.219 684.124L193.459 663.352L197.323 668.791L172.573 686.375L180.876 698.062Z" fill="white"/>
</svg>
