<svg width="100%" height="100%" viewBox="0 0 2100 400" version="1.1" xmlns="http://www.w3.org/2000/svg" xmlns:xlink="http://www.w3.org/1999/xlink" xml:space="preserve" xmlns:serif="http://www.serif.com/" style="fill-rule:evenodd;clip-rule:evenodd;stroke-linejoin:round;stroke-miterlimit:2;">
    <g transform="matrix(1,0,0,1,-7021.96,-1150.32)">
        <g transform="matrix(1.31677,0,0,0.988541,501.334,-225.897)">
            <rect x="4952" y="1392.17" width="1594.82" height="404.637" style="fill:none;"/>
            <g id="Logo" transform="matrix(1.06821,0,0,1.07281,1110.11,837.688)">
                <g transform="matrix(0.753968,0,0,1,826.017,0)">
                    <path d="M4099.72,860.287L3995,860.287L3982.79,814.747L3674.64,888.573L4053.48,727.764L4099.72,860.287Z" style="fill:rgb(23,43,77);"/>
                </g>
                <g transform="matrix(0.753968,0,0,1,826.017,0)">
                    <path d="M4240.4,558.926L3957.94,722.028L3927.35,607.876L3866.77,774.675L3759.12,836.845L3873.79,521.022L3981.38,521.23L4023.14,640.859L4240.4,558.926Z" style="fill:rgb(23,43,77);"/>
                </g>
            </g>
            <g transform="matrix(1.95988,0,0,2.61061,-1745,-881.451)">
                <path d="M3649.55,981.763L3674.8,914.536L3695.84,914.536L3721.08,981.763L3702.39,981.763L3698.38,970.118L3671.57,970.118L3667.56,981.763L3649.55,981.763ZM3675.78,957.005L3694.07,957.005L3689.28,942.816C3689.02,942.099 3688.71,941.202 3688.35,940.125C3687.99,939.049 3687.63,937.907 3687.27,936.7C3686.91,935.493 3686.57,934.27 3686.24,933.03C3685.92,931.791 3685.59,930.715 3685.27,929.801L3684.58,929.801C3684.32,931.041 3683.95,932.443 3683.46,934.009C3682.97,935.575 3682.48,937.14 3681.99,938.706C3681.5,940.272 3681.06,941.642 3680.67,942.816L3675.78,957.005Z" style="fill:rgb(23,43,77);fill-rule:nonzero;"/>
                <path d="M3729.11,981.763L3729.11,914.536L3746.62,914.536L3746.62,967.378L3780.78,967.378L3780.78,981.763L3729.11,981.763Z" style="fill:rgb(23,43,77);fill-rule:nonzero;"/>
                <path d="M3797.02,981.763L3797.02,928.92L3775.2,928.92L3775.2,914.536L3836.36,914.536L3836.36,928.92L3814.54,928.92L3814.54,981.763L3797.02,981.763Z" style="fill:rgb(23,43,77);fill-rule:nonzero;"/>
                <path d="M3831.66,981.763L3856.91,914.536L3877.95,914.536L3903.19,981.763L3884.5,981.763L3880.49,970.118L3853.68,970.118L3849.67,981.763L3831.66,981.763ZM3857.89,957.005L3876.18,957.005L3871.39,942.816C3871.13,942.099 3870.82,941.202 3870.46,940.125C3870.1,939.049 3869.74,937.907 3869.38,936.7C3869.03,935.493 3868.68,934.27 3868.36,933.03C3868.03,931.791 3867.7,930.715 3867.38,929.801L3866.69,929.801C3866.43,931.041 3866.06,932.443 3865.57,934.009C3865.08,935.575 3864.59,937.14 3864.1,938.706C3863.61,940.272 3863.17,941.642 3862.78,942.816L3857.89,957.005Z" style="fill:rgb(23,43,77);fill-rule:nonzero;"/>
                <path d="M3940.38,982.937C3933.14,982.937 3926.99,981.682 3921.93,979.17C3916.88,976.658 3913.05,972.826 3910.43,967.672C3907.83,962.518 3906.52,955.994 3906.52,948.1C3906.52,936.488 3909.44,927.795 3915.28,922.022C3921.12,916.248 3929.49,913.361 3940.38,913.361C3946.45,913.361 3951.83,914.389 3956.53,916.444C3961.22,918.499 3964.89,921.565 3967.54,925.642C3970.18,929.72 3971.5,934.792 3971.5,940.859L3954.37,940.859C3954.37,937.989 3953.8,935.526 3952.66,933.471C3951.52,931.416 3949.92,929.834 3947.87,928.725C3945.81,927.616 3943.32,927.061 3940.38,927.061C3936.73,927.061 3933.72,927.811 3931.38,929.312C3929.03,930.812 3927.3,932.965 3926.19,935.77C3925.08,938.576 3924.53,941.968 3924.53,945.948L3924.53,950.351C3924.53,954.331 3925.08,957.739 3926.19,960.577C3927.3,963.415 3929.01,965.568 3931.33,967.036C3933.64,968.504 3936.63,969.237 3940.28,969.237C3943.41,969.237 3946.07,968.716 3948.26,967.672C3950.44,966.628 3952.11,965.079 3953.25,963.024C3954.39,960.969 3954.96,958.506 3954.96,955.635L3971.5,955.635C3971.5,961.703 3970.21,966.758 3967.63,970.803C3965.06,974.848 3961.43,977.882 3956.77,979.904C3952.11,981.926 3946.64,982.937 3940.38,982.937Z" style="fill:rgb(23,43,77);fill-rule:nonzero;"/>
                <path d="M4015.34,982.937C4007.97,982.937 4001.65,981.649 3996.4,979.072C3991.15,976.495 3987.12,972.63 3984.32,967.476C3981.51,962.322 3980.11,955.864 3980.11,948.1C3980.11,940.337 3981.51,933.895 3984.32,928.774C3987.12,923.653 3991.15,919.803 3996.4,917.227C4001.65,914.65 4007.97,913.361 4015.34,913.361C4022.71,913.361 4029.02,914.65 4034.27,917.227C4039.53,919.803 4043.55,923.653 4046.36,928.774C4049.16,933.895 4050.57,940.337 4050.57,948.1C4050.57,955.864 4049.16,962.322 4046.36,967.476C4043.55,972.63 4039.53,976.495 4034.27,979.072C4029.02,981.649 4022.71,982.937 4015.34,982.937ZM4015.34,969.237C4018.14,969.237 4020.62,968.813 4022.78,967.965C4024.93,967.117 4026.74,965.878 4028.21,964.247C4029.67,962.616 4030.77,960.626 4031.48,958.278C4032.2,955.929 4032.56,953.287 4032.56,950.351L4032.56,946.045C4032.56,943.044 4032.2,940.37 4031.48,938.021C4030.77,935.673 4029.67,933.683 4028.21,932.052C4026.74,930.421 4024.93,929.181 4022.78,928.333C4020.62,927.485 4018.14,927.061 4015.34,927.061C4012.47,927.061 4009.96,927.485 4007.8,928.333C4005.65,929.181 4003.86,930.421 4002.42,932.052C4000.99,933.683 3999.91,935.673 3999.19,938.021C3998.47,940.37 3998.12,943.044 3998.12,946.045L3998.12,950.351C3998.12,953.287 3998.47,955.929 3999.19,958.278C3999.91,960.626 4000.99,962.616 4002.42,964.247C4003.86,965.878 4005.65,967.117 4007.8,967.965C4009.96,968.813 4012.47,969.237 4015.34,969.237Z" style="fill:rgb(23,43,77);fill-rule:nonzero;"/>
                <path d="M4062.31,981.763L4062.31,914.536L4087.85,914.536L4095.97,944.48C4096.3,945.524 4096.69,946.942 4097.15,948.736C4097.6,950.531 4098.06,952.406 4098.52,954.363C4098.97,956.32 4099.36,958.082 4099.69,959.648L4100.47,959.648C4100.73,958.408 4101.06,956.924 4101.45,955.195C4101.84,953.466 4102.27,951.64 4102.72,949.715C4103.18,947.791 4103.61,946.013 4104,944.382L4112.22,914.536L4137.07,914.536L4137.07,981.763L4120.05,981.763L4120.05,953.091C4120.05,950.286 4120.06,947.448 4120.09,944.578C4120.13,941.707 4120.18,939.098 4120.24,936.749C4120.31,934.4 4120.34,932.704 4120.34,931.66L4119.56,931.66C4119.36,932.639 4119.05,934.058 4118.63,935.917C4118.2,937.777 4117.74,939.701 4117.26,941.691C4116.77,943.681 4116.33,945.393 4115.94,946.828L4106.15,981.763L4092.06,981.763L4082.17,946.828C4081.85,945.524 4081.46,943.958 4081,942.131C4080.54,940.304 4080.1,938.445 4079.68,936.553C4079.26,934.661 4078.88,933.063 4078.55,931.758L4077.77,931.758C4077.84,933.455 4077.9,935.526 4077.97,937.972C4078.03,940.419 4078.1,942.963 4078.16,945.605C4078.23,948.247 4078.26,950.743 4078.26,953.091L4078.26,981.763L4062.31,981.763Z" style="fill:rgb(23,43,77);fill-rule:nonzero;"/>
                <path d="M4151.75,981.763L4151.75,914.536L4177.29,914.536L4185.41,944.48C4185.74,945.524 4186.13,946.942 4186.59,948.736C4187.04,950.531 4187.5,952.406 4187.96,954.363C4188.41,956.32 4188.81,958.082 4189.13,959.648L4189.91,959.648C4190.18,958.408 4190.5,956.924 4190.89,955.195C4191.28,953.466 4191.71,951.64 4192.16,949.715C4192.62,947.791 4193.05,946.013 4193.44,944.382L4201.66,914.536L4226.51,914.536L4226.51,981.763L4209.49,981.763L4209.49,953.091C4209.49,950.286 4209.5,947.448 4209.53,944.578C4209.57,941.707 4209.62,939.098 4209.68,936.749C4209.75,934.4 4209.78,932.704 4209.78,931.66L4209,931.66C4208.8,932.639 4208.49,934.058 4208.07,935.917C4207.64,937.777 4207.19,939.701 4206.7,941.691C4206.21,943.681 4205.77,945.393 4205.38,946.828L4195.59,981.763L4181.5,981.763L4171.61,946.828C4171.29,945.524 4170.9,943.958 4170.44,942.131C4169.98,940.304 4169.54,938.445 4169.12,936.553C4168.7,934.661 4168.32,933.063 4167.99,931.758L4167.21,931.758C4167.28,933.455 4167.34,935.526 4167.41,937.972C4167.47,940.419 4167.54,942.963 4167.6,945.605C4167.67,948.247 4167.7,950.743 4167.7,953.091L4167.7,981.763L4151.75,981.763Z" style="fill:rgb(23,43,77);fill-rule:nonzero;"/>
            </g>
        </g>
    </g>
</svg>
