<svg width="150" height="150" viewBox="-4 -4 38 48" fill="none" xmlns="http://www.w3.org/2000/svg" stroke="white" stroke-width="0.5px">
<path d="M22.5 32.0334V10.0305C22.5 9.8209 22.6679 9.65106 22.8751 9.65106H29.6253C29.8321 9.65106 30 9.8209 30 10.0305V32.0594L22.5 32.0334ZM7.8495 40H22.1506C22.3743 40 22.5889 39.9102 22.7472 39.7502L29.7529 32.6628C29.8245 32.5905 29.8824 32.506 29.9242 32.4128H7.875L7.8495 40ZM7.49995 39.9234C7.408 39.881 7.32432 39.8223 7.2529 39.75L0.247138 32.6628C0.0889234 32.5026 2.56613e-05 32.2857 7.97085e-09 32.0594V10.0046C-1.5225e-05 9.89248 0.0218032 9.78148 0.0642084 9.67793C0.106614 9.57438 0.168774 9.4803 0.247138 9.40106L7.01992 2.54935C7.19705 2.37014 7.50003 2.49701 7.50003 2.75072L7.49995 39.9234Z" fill="#FCC300"></path>
<path d="M22.5 0.284855V6.806C22.5 7.01542 22.6679 7.18526 22.875 7.18526H29.3211C29.5716 7.18526 29.6971 6.87884 29.52 6.69963L22.9801 0.0838952C22.8029 -0.0953085 22.5 0.0316092 22.5 0.284855Z" fill="#1F252A"></path>
</svg>